<svg xmlns="http://www.w3.org/2000/svg" width="209.567" height="128.582" viewBox="0 0 209.567 128.582">
  <g id="Clyn_Logo" data-name="Clyn Logo" transform="translate(-35.901 -473.584)">
    <path id="Path_2" data-name="Path 2" d="M72.175,542.707a24.6,24.6,0,0,0,10.464-2.043,36.035,36.035,0,0,0,9.168-6.528l7.574,7.773q-11.061,12.257-26.856,12.257T46.315,544Q35.9,533.837,35.9,518.292t10.613-25.91q10.613-10.363,26.807-10.364a35.055,35.055,0,0,1,27.056,11.958L92.9,502.148a32.663,32.663,0,0,0-9.417-6.677,26.381,26.381,0,0,0-10.414-1.894A24.746,24.746,0,0,0,55.333,500.4q-7.175,6.827-7.175,17.439a24.073,24.073,0,0,0,7.125,17.738A23.077,23.077,0,0,0,72.175,542.707Z" transform="translate(0 -5.843)" fill="#c0bebf"/>
    <path id="Path_3" data-name="Path 3" d="M295.224,547.526H284.063V473.584h11.161Z" transform="translate(-171.928 0)" fill="#c0bebf"/>
    <path id="Path_4" data-name="Path 4" d="M361.538,542.447H349.58c12.4,30.586,19.414,48.366,21.054,53.124.005.021.016.041.021.062l.021-.052,6.117-15.588Z" transform="translate(-217.319 -47.709)" fill="#c0bebf"/>
    <path id="Path_5" data-name="Path 5" d="M570.3,564.226v28.7H559.143V539.911H570.3v9.666a20.105,20.105,0,0,1,17.639-10.463q8.968,0,14.5,5.481t5.531,15.844v32.487H596.812v-29.1q0-14.649-12.157-14.649a14.608,14.608,0,0,0-10.065,3.837Q570.3,556.853,570.3,564.226Z" transform="translate(-362.505 -45.4)" fill="#c0bebf"/>
    <path id="Path_6" data-name="Path 6" d="M418.157,715.274l-.021.052c-.005-.021-.016-.041-.021-.062l.021-.052C418.142,715.232,418.153,715.253,418.157,715.274Z" transform="translate(-264.801 -167.401)" fill="lime"/>
    <g id="Group_10" data-name="Group 10" transform="translate(112.893 494.28)">
      <g id="Group_9" data-name="Group 9" transform="translate(0 0)">
        <g id="Group_4" data-name="Group 4" transform="translate(3.557 70.904)">
          <path id="Path_7" data-name="Path 7" d="M331.9,801.02c-10.777,8.283-33.794,7.721-33.794,7.721s12.969-11.818,18.742-24.12c5.383-11.485,12.021-14.1,17.222-12.365-.255.666-.474,1.359-.75,2.035a47.055,47.055,0,0,1-1.942,4.41l-.557,1.078-.588,1.057c-.38.713-.8,1.4-1.218,2.077s-.859,1.338-1.275,2c-.448.64-.864,1.3-1.322,1.905-.885,1.244-1.817,2.39-2.707,3.478-.906,1.068-1.786,2.067-2.645,2.942a51.59,51.59,0,0,1-4.373,4.035c-1.114.911-1.8,1.364-1.8,1.364l.187.312s.755-.375,1.989-1.156a44.632,44.632,0,0,0,4.883-3.6c.968-.8,1.973-1.728,3.019-2.723,1.036-1.015,2.088-2.119,3.124-3.316.531-.588,1.026-1.224,1.551-1.848.495-.646,1.01-1.291,1.489-1.973s.979-1.359,1.432-2.072l.7-1.062.661-1.083c.885-1.448,1.718-2.931,2.5-4.415.3-.567.583-1.14.854-1.713.016.01.031.026.047.037C342.753,778.269,342.175,793.122,331.9,801.02Z" transform="translate(-298.109 -771.766)" fill="#68c28e"/>
        </g>
        <g id="Group_5" data-name="Group 5" transform="translate(0 68.645)">
          <path id="Path_8" data-name="Path 8" d="M308.989,782.6c-8.506,2.445-22.459-3.3-22.459-3.3s10.662-4.053,17.034-10.089c5.944-5.636,10.61-5.65,13.391-3.383-.31.34-.6.705-.928,1.047a30.026,30.026,0,0,1-2.206,2.193l-.59.517-.6.5c-.4.339-.813.65-1.225.962s-.834.6-1.243.9c-.422.28-.828.576-1.249.834-.829.54-1.663,1.009-2.459,1.453-.8.429-1.57.822-2.3,1.146a33.6,33.6,0,0,1-3.607,1.4c-.892.286-1.417.4-1.417.4l.043.232s.548-.048,1.483-.227a29.224,29.224,0,0,0,3.819-1.017c.778-.254,1.606-.575,2.476-.927s1.766-.782,2.677-1.259c.46-.229.91-.494,1.376-.746.452-.272.916-.538,1.366-.836s.912-.586,1.354-.908l.672-.474.654-.5c.876-.661,1.728-1.357,2.551-2.064.316-.27.62-.028.918-.308.007.01.534-.5.541-.488C321.4,771.479,317.1,780.268,308.989,782.6Z" transform="translate(-286.53 -764.412)" fill="#68c08e"/>
        </g>
        <g id="Group_6" data-name="Group 6" transform="translate(41.466 75.973)">
          <path id="Path_9" data-name="Path 9" d="M434.3,801.245c-1.452,7.23-11.062,15.208-11.062,15.208s1.087-9.457-.94-16.545c-1.895-6.615-.115-10.053,2.631-11.2.133.363.291.724.42,1.1a25.652,25.652,0,0,1,.779,2.5l.156.639.136.642c.1.427.17.856.243,1.284s.126.853.193,1.274c.045.421.109.838.139,1.251.082.825.109,1.625.134,2.388s.007,1.482-.032,2.146a28.035,28.035,0,0,1-.349,3.209c-.131.77-.25,1.2-.25,1.2l.188.061s.175-.422.4-1.182A24.243,24.243,0,0,0,427.8,802c.11-.673.19-1.41.263-2.19s.1-1.611.095-2.47c.007-.43-.017-.866-.025-1.309-.028-.44-.048-.888-.095-1.338s-.084-.9-.154-1.358l-.094-.683-.116-.679c-.155-.907-.343-1.811-.551-2.7-.079-.339-.168-.674-.262-1l.032,0C430.626,788.075,435.686,794.353,434.3,801.245Z" transform="translate(-421.514 -788.268)" fill="#68c08e"/>
        </g>
        <g id="Group_8" data-name="Group 8" transform="translate(37.793)">
          <g id="Group_7" data-name="Group 7">
            <path id="Path_10" data-name="Path 10" d="M443.776,541.695h0a7.811,7.811,0,0,0-10.6,4.247l-23.621,64.076a21.564,21.564,0,0,1,4.37,1.3,10.615,10.615,0,0,1,3.663,2.888L447.6,551.942A7.811,7.811,0,0,0,443.776,541.695Zm-3.2,11.519a4.685,4.685,0,1,1,4.686-4.685A4.685,4.685,0,0,1,440.571,553.213Z" transform="translate(-409.558 -540.954)" fill="#68c28e"/>
          </g>
        </g>
      </g>
    </g>
  </g>
</svg>
